<?xml version="1.0" standalone="no"?>
<!DOCTYPE svg PUBLIC "-//W3C//DTD SVG 20010904//EN"
 "http://www.w3.org/TR/2001/REC-SVG-20010904/DTD/svg10.dtd">
<svg version="1.0"
    xmlns="http://www.w3.org/2000/svg" width="512.000000pt" height="512.000000pt" viewBox="0 0 512.000000 512.000000" preserveAspectRatio="xMidYMid meet">

    <g transform="translate(0.000000,512.000000) scale(0.100000,-0.100000)" fill="#22b0ea" stroke="none">
        <path d="M3867 4674 c-208 -37 -383 -129 -532 -279 -130 -129 -215 -277 -263
-454 -33 -127 -37 -342 -8 -466 90 -385 376 -671 761 -761 116 -27 330 -26
445 3 372 94 649 370 743 743 30 121 30 339 0 460 -87 343 -332 610 -660 719
-147 49 -333 63 -486 35z m250 -325 c82 -40 87 -56 93 -284 l5 -200 200 -5
c228 -6 244 -11 284 -93 27 -56 27 -103 -2 -158 -41 -76 -63 -83 -287 -89
l-195 -5 -5 -195 c-6 -224 -13 -246 -89 -287 -55 -29 -102 -29 -158 -2 -82 40
-87 56 -93 284 l-5 200 -200 5 c-187 5 -202 6 -232 28 -38 27 -73 95 -73 142
0 47 35 115 73 142 30 22 45 23 232 28 l200 5 5 200 c6 228 11 244 92 284 54
27 100 27 155 0z"/>
        <path d="M1870 4419 c-359 -37 -733 -188 -1020 -412 -96 -75 -253 -230 -330
-327 -97 -122 -163 -227 -236 -375 -271 -551 -271 -1199 0 -1750 201 -408 513
-721 921 -921 750 -368 1651 -228 2254 351 398 381 621 903 621 1452 l0 93
-57 0 c-32 0 -103 7 -157 15 -55 8 -101 15 -103 15 -1 0 -3 -48 -3 -107 0
-273 -58 -530 -170 -759 -48 -96 -136 -237 -185 -296 l-23 -27 -46 95 c-133
275 -362 506 -640 646 -314 158 -709 185 -1052 73 -355 -116 -657 -381 -821
-720 l-47 -97 -18 24 c-159 204 -276 463 -330 730 -30 150 -32 440 -4 593 64
353 218 648 470 901 252 251 549 406 901 470 153 28 443 26 593 -4 169 -34
375 -107 503 -179 3 -2 16 34 28 79 18 68 43 137 77 214 7 15 -153 88 -294
134 -266 87 -552 117 -832 89z"/>
        <path d="M1915 3736 c-195 -56 -349 -170 -443 -328 -124 -208 -129 -471 -14
-693 56 -107 192 -239 302 -293 117 -57 193 -75 320 -75 127 0 203 18 320 75
69 34 102 58 175 132 56 57 102 114 122 151 98 186 114 387 48 578 -67 194
-226 354 -425 429 -77 28 -97 32 -220 35 -95 2 -150 -1 -185 -11z"/>
    </g>
</svg>
