<svg xmlns="http://www.w3.org/2000/svg" width="18.17" height="18.063" viewBox="0 0 18.17 18.063">
  <path id="Add_Icon_Destination" d="M997.438,5943.252s2.31-2.285,2.668-2.668a1.363,1.363,0,0,1,1.8,0,1.54,1.54,0,0,1,0,1.9c-.41.462-2.681,2.682-2.681,2.682s1.44,7.888,1.578,8.579a2.482,2.482,0,0,1-1.026,2.437c-.564-1.359-3.617-8.1-3.617-8.1l-4.361,4.36.846,3.745-1.077,1.129-2.052-4.412-4.335-2.052,1.308-1.282,3.591.9,4.386-4.284s-7.182-3.026-8.157-3.463a2.505,2.505,0,0,1,2.8-.872C990.333,5942.072,997.438,5943.252,997.438,5943.252Z" transform="translate(-984.677 -5939.745)" fill="none" stroke="#707070" stroke-linejoin="round" stroke-width="1"/>
</svg>
