<?xml version="1.0" ?><svg viewBox="0 0 438.87 393.96" xmlns="http://www.w3.org/2000/svg"><title/><g data-name="Layer 2" id="Layer_2"><g data-name="drowning, water, rescue, sea, hand, help, danger, person, drown, problem, sos, swimming, life" id="drowning_water_rescue_sea_hand_help_danger_person_drown_problem_sos_swimming_life"><path d="M162.61,249a5.36,5.36,0,0,0,5.36-5.36V204.65c47-22.43,61.31-65.8,65.68-90a25.3,25.3,0,0,0-24.87-29.84h-.44a25.53,25.53,0,0,0-24.8,20.38,92.65,92.65,0,0,1-3.83,13.41,5.36,5.36,0,1,0,10,3.75,103.45,103.45,0,0,0,4.28-15,14.57,14.57,0,0,1,14.3-11.83h.44a14.57,14.57,0,0,1,14.32,17.21c-5,27.66-19.93,64.61-62.66,83.57a5.35,5.35,0,0,0-3.19,4.9v42.37A5.36,5.36,0,0,0,162.61,249Z"/><path d="M32.54,84.81A25.3,25.3,0,0,0,7.67,114.65c4.37,24.2,18.72,67.57,65.68,90v65.77a5.36,5.36,0,0,0,10.72,0v-69.2a5.35,5.35,0,0,0-3.19-4.9c-42.73-19-57.66-55.91-62.66-83.57A14.57,14.57,0,0,1,32.54,95.54H33a14.57,14.57,0,0,1,14.3,11.83,103.45,103.45,0,0,0,4.28,15,5.36,5.36,0,1,0,10-3.75,92.65,92.65,0,0,1-3.83-13.41A25.53,25.53,0,0,0,33,84.81Z"/><path d="M147.54,178a50.91,50.91,0,1,0-51.79,1.17,5.36,5.36,0,0,0,5.25-9.35,40.2,40.2,0,1,1,40.87-.92,5.36,5.36,0,0,0,5.67,9.1Z"/><path d="M146.15,136.14a25.49,25.49,0,0,0-51,0,10.52,10.52,0,0,0,10.51,10.51h30A10.52,10.52,0,0,0,146.15,136.14Zm-40.26-.21a14.77,14.77,0,0,1,29.54,0Z"/><path d="M433.51,286.79c-19.93,0-29.71-5.87-40.06-12.08C382.3,268,370.77,261.1,347.87,261.1S313.45,268,302.3,274.71c-10.36,6.21-20.14,12.08-40.06,12.08s-29.7-5.87-40.06-12.08C211,268,199.5,261.1,176.61,261.1c-19,0-30.29,4.87-39.62,10.12a5.36,5.36,0,1,0,5.25,9.34c9.33-5.24,18.74-8.74,34.37-8.74,19.92,0,29.7,5.87,40.06,12.09,11.15,6.69,22.68,13.6,45.57,13.6s34.42-6.91,45.57-13.6c10.36-6.22,20.14-12.09,40.06-12.09s29.71,5.87,40.06,12.09c11.15,6.69,22.68,13.6,45.58,13.6a5.36,5.36,0,1,0,0-10.72Z"/><path d="M112.83,294.67a5.26,5.26,0,0,0,1.51-.22c.8-.24,1.59-.48,2.36-.74a5.36,5.36,0,1,0-3.38-10.17c-.65.21-1.31.42-2,.62a5.36,5.36,0,0,0,1.5,10.51Z"/><path d="M0,266.46a5.36,5.36,0,0,0,5.36,5.36c19.92,0,29.7,5.87,40.05,12.09S66.35,296.47,86,297.4h.26a5.36,5.36,0,0,0,.24-10.72c-17-.8-26-6.23-35.61-12C39.78,268,28.25,261.1,5.36,261.1A5.36,5.36,0,0,0,0,266.46Z"/><path d="M433.51,335c-19.93,0-29.71-5.87-40.06-12.08-11.15-6.69-22.68-13.61-45.58-13.61a86.68,86.68,0,0,0-18.18,1.76,5.36,5.36,0,0,0,2.23,10.49,76.23,76.23,0,0,1,15.95-1.53c19.93,0,29.71,5.87,40.06,12.08,11.15,6.69,22.68,13.61,45.58,13.61a5.36,5.36,0,0,0,0-10.72Z"/><path d="M216.67,332.13c11.15,6.69,22.68,13.61,45.57,13.61s34.42-6.92,45.57-13.61c1.27-.76,2.53-1.52,3.82-2.27a5.36,5.36,0,0,0-5.4-9.26q-2,1.15-3.93,2.34C291.94,329.15,282.16,335,262.24,335s-29.7-5.87-40.06-12.08c-11.15-6.69-22.68-13.61-45.57-13.61s-34.42,6.92-45.57,13.61C120.69,329.15,110.91,335,91,335s-29.7-5.87-40.05-12.08c-11.15-6.69-22.68-13.61-45.57-13.61a5.36,5.36,0,0,0,0,10.72c19.92,0,29.7,5.87,40.05,12.08,11.15,6.69,22.68,13.61,45.57,13.61s34.42-6.92,45.58-13.61c10.35-6.21,20.13-12.08,40.05-12.08S206.31,325.92,216.67,332.13Z"/><path d="M433.51,383.24c-19.93,0-29.71-5.87-40.06-12.08-11.15-6.69-22.68-13.61-45.58-13.61s-34.42,6.92-45.57,13.61c-10.36,6.21-20.14,12.08-40.06,12.08s-29.7-5.87-40.06-12.08c-11.15-6.69-22.68-13.61-45.57-13.61a90.59,90.59,0,0,0-14.69,1.11,5.36,5.36,0,1,0,1.72,10.58,80.79,80.79,0,0,1,13-1c19.92,0,29.7,5.87,40.06,12.08C227.82,387,239.35,394,262.24,394s34.42-6.92,45.57-13.61c10.36-6.21,20.14-12.08,40.06-12.08s29.71,5.87,40.06,12.08C399.08,387,410.61,394,433.51,394a5.36,5.36,0,0,0,0-10.72Z"/><path d="M140.71,377.88a5.36,5.36,0,1,0-5.37-9.27q-2.18,1.26-4.3,2.55c-10.35,6.21-20.13,12.08-40.06,12.08s-29.7-5.87-40.05-12.08c-11.15-6.69-22.68-13.61-45.57-13.61a5.36,5.36,0,0,0,0,10.72c19.92,0,29.7,5.87,40.05,12.08C56.56,387,68.09,394,91,394s34.43-6.92,45.58-13.61Q138.62,379.1,140.71,377.88Z"/><path d="M356.48,7.46a21.85,21.85,0,0,0-38.09,17.27l10.11,75.71a11.65,11.65,0,0,0,23.09,0l10.1-75.71A21.78,21.78,0,0,0,356.48,7.46Zm-5.41,15.85L341,99c0,.34-.11.8-.92.8s-.87-.46-.91-.8L329,23.31a11.12,11.12,0,1,1,22.05,0Z"/><path d="M321.24,137.27A18.81,18.81,0,1,0,340,118.46,18.83,18.83,0,0,0,321.24,137.27Zm26.89,0a8.09,8.09,0,1,1-8.09-8.09A8.09,8.09,0,0,1,348.13,137.27Z"/></g></g></svg>