<?xml version="1.0" ?><svg viewBox="0 0 512 512" xmlns="http://www.w3.org/2000/svg"><title/><g id="Hospital_location"><path d="M364.3483,100.88a153.2274,153.2274,0,0,0-232.335,198.3808l107.84,148.51a19.9555,19.9555,0,0,0,32.2939,0l107.84-148.51A153.2263,153.2263,0,0,0,364.3483,100.88ZM256.0006,313.79A104.5615,104.5615,0,1,1,360.5622,209.23,104.5611,104.5611,0,0,1,256.0006,313.79Z"/><path d="M316.9167,185.1025H280.1256v-36.789a7.441,7.441,0,0,0-7.44-7.4414h-33.37a7.441,7.441,0,0,0-7.44,7.4414v36.789h-36.79a7.442,7.442,0,0,0-7.4414,7.4414V225.915a7.44,7.44,0,0,0,7.4414,7.44h36.79v36.7891a7.44,7.44,0,0,0,7.44,7.4414h33.37a7.44,7.44,0,0,0,7.44-7.4414V233.3545h36.7911a7.4392,7.4392,0,0,0,7.4394-7.44V192.5439A7.4409,7.4409,0,0,0,316.9167,185.1025Z"/></g></svg>