<?xml version="1.0" ?><svg viewBox="0 0 64 64" xmlns="http://www.w3.org/2000/svg"><title/><g data-name="26-doctor" id="_26-doctor"><path d="M43,29h1a3,3,0,0,0,3-3h0a3,3,0,0,0-3-3h0V14H20v9h0a3,3,0,0,0-3,3h0a3,3,0,0,0,3,3h1" style="fill:none;stroke:#000;stroke-linejoin:round;stroke-width:2px"/><path d="M21,27H43a0,0,0,0,1,0,0v3A11,11,0,0,1,32,41h0A11,11,0,0,1,21,30V27a0,0,0,0,1,0,0Z" style="fill:none;stroke:#000;stroke-linejoin:round;stroke-width:2px"/><path d="M18,24l-2.209-2.209a6.329,6.329,0,0,1-.675-8.154l1.389-1.944a1.414,1.414,0,0,0,.114-1.455h0a3.753,3.753,0,0,1,1.56-4.972l.763-.416A19.621,19.621,0,0,1,33.73,3.209h0a20.118,20.118,0,0,0,12.4-.437L51,1,48,9l6-1-2.921,4.381a4.4,4.4,0,0,0-.607,3.506h0a4.4,4.4,0,0,1-.833,3.814L46,24" style="fill:none;stroke:#000;stroke-linejoin:round;stroke-width:2px"/><polyline points="28.286 40.357 32 45 28 48 26 39" style="fill:none;stroke:#000;stroke-linejoin:round;stroke-width:2px"/><polyline points="35.714 40.357 32 45 36 48 38 39" style="fill:none;stroke:#000;stroke-linejoin:round;stroke-width:2px"/><polyline points="29.833 46.667 31 49 33 49 34.167 46.667" style="fill:none;stroke:#000;stroke-linejoin:round;stroke-width:2px"/><polyline points="25 38 20 46 30 60 28 48" style="fill:none;stroke:#000;stroke-linejoin:round;stroke-width:2px"/><path d="M30,60v3H6l.886-5.02A17.2,17.2,0,0,1,21,44h0" style="fill:none;stroke:#000;stroke-linejoin:round;stroke-width:2px"/><polyline points="39 38 44 46 34 60 36 48" style="fill:none;stroke:#000;stroke-linejoin:round;stroke-width:2px"/><path d="M34,60v3H58l-.886-5.02A17.2,17.2,0,0,0,43,44h0" style="fill:none;stroke:#000;stroke-linejoin:round;stroke-width:2px"/><line style="fill:none;stroke:#000;stroke-linejoin:round;stroke-width:2px" x1="31" x2="28.667" y1="49" y2="52"/><line style="fill:none;stroke:#000;stroke-linejoin:round;stroke-width:2px" x1="33" x2="35.333" y1="49" y2="52"/><line style="fill:none;stroke:#000;stroke-linejoin:round;stroke-width:2px" x1="30" x2="34" y1="63" y2="63"/><line style="fill:none;stroke:#000;stroke-linejoin:round;stroke-width:2px" x1="29.286" x2="34.313" y1="55.714" y2="50.688"/><line style="fill:none;stroke:#000;stroke-linejoin:round;stroke-width:2px" x1="30" x2="34.6" y1="61" y2="56.4"/><line style="fill:none;stroke:#000;stroke-linejoin:round;stroke-width:2px" x1="21" x2="35" y1="31" y2="31"/><line style="fill:none;stroke:#000;stroke-linejoin:round;stroke-width:2px" x1="22" x2="32" y1="35" y2="35"/></g></svg>